<mxfile host="app.diagrams.net" modified="2020-10-26T12:59:02.561Z" agent="5.0 (Windows NT 10.0; Win64; x64) AppleWebKit/537.36 (KHTML, like Gecko) Chrome/86.0.4240.111 Safari/537.36" etag="Eg5G-ooAImF78s84DFEg" version="13.8.2" type="github">
  <diagram name="Page-1" id="e7e014a7-5840-1c2e-5031-d8a46d1fe8dd">
    <mxGraphModel dx="783" dy="558" grid="1" gridSize="10" guides="1" tooltips="1" connect="1" arrows="1" fold="1" page="1" pageScale="1" pageWidth="1169" pageHeight="826" background="#ffffff" math="0" shadow="0">
      <root>
        <mxCell id="0" />
        <mxCell id="1" parent="0" />
        <mxCell id="eCsi99Z--QrvyG-Xt2cK-46" style="edgeStyle=orthogonalEdgeStyle;rounded=0;orthogonalLoop=1;jettySize=auto;html=1;entryX=0;entryY=0.5;entryDx=0;entryDy=0;" edge="1" parent="1" source="eCsi99Z--QrvyG-Xt2cK-41" target="eCsi99Z--QrvyG-Xt2cK-45">
          <mxGeometry relative="1" as="geometry">
            <mxPoint x="330" y="210" as="targetPoint" />
          </mxGeometry>
        </mxCell>
        <mxCell id="eCsi99Z--QrvyG-Xt2cK-41" value="本地日志文件" style="rounded=1;whiteSpace=wrap;html=1;fillColor=#dae8fc;strokeColor=#6c8ebf;" vertex="1" parent="1">
          <mxGeometry x="140" y="180" width="120" height="60" as="geometry" />
        </mxCell>
        <mxCell id="eCsi99Z--QrvyG-Xt2cK-43" style="edgeStyle=orthogonalEdgeStyle;rounded=0;orthogonalLoop=1;jettySize=auto;html=1;" edge="1" parent="1" source="eCsi99Z--QrvyG-Xt2cK-42">
          <mxGeometry relative="1" as="geometry">
            <mxPoint x="205" y="230" as="targetPoint" />
            <Array as="points">
              <mxPoint x="205" y="340" />
              <mxPoint x="205" y="340" />
            </Array>
          </mxGeometry>
        </mxCell>
        <mxCell id="eCsi99Z--QrvyG-Xt2cK-65" value="交互数据" style="edgeLabel;html=1;align=center;verticalAlign=middle;resizable=0;points=[];" vertex="1" connectable="0" parent="eCsi99Z--QrvyG-Xt2cK-43">
          <mxGeometry x="0.1217" relative="1" as="geometry">
            <mxPoint as="offset" />
          </mxGeometry>
        </mxCell>
        <mxCell id="eCsi99Z--QrvyG-Xt2cK-50" style="edgeStyle=orthogonalEdgeStyle;rounded=0;orthogonalLoop=1;jettySize=auto;html=1;entryX=0;entryY=0.25;entryDx=0;entryDy=0;" edge="1" parent="1" source="eCsi99Z--QrvyG-Xt2cK-42" target="eCsi99Z--QrvyG-Xt2cK-49">
          <mxGeometry relative="1" as="geometry" />
        </mxCell>
        <mxCell id="eCsi99Z--QrvyG-Xt2cK-64" style="edgeStyle=orthogonalEdgeStyle;rounded=0;orthogonalLoop=1;jettySize=auto;html=1;shadow=0;" edge="1" parent="1" source="eCsi99Z--QrvyG-Xt2cK-42" target="eCsi99Z--QrvyG-Xt2cK-47">
          <mxGeometry relative="1" as="geometry">
            <Array as="points">
              <mxPoint x="130" y="490" />
              <mxPoint x="130" y="150" />
              <mxPoint x="710" y="150" />
            </Array>
          </mxGeometry>
        </mxCell>
        <mxCell id="eCsi99Z--QrvyG-Xt2cK-66" value="交互数据同步到数据库" style="edgeLabel;html=1;align=center;verticalAlign=middle;resizable=0;points=[];" vertex="1" connectable="0" parent="eCsi99Z--QrvyG-Xt2cK-64">
          <mxGeometry x="0.3108" y="-1" relative="1" as="geometry">
            <mxPoint as="offset" />
          </mxGeometry>
        </mxCell>
        <mxCell id="eCsi99Z--QrvyG-Xt2cK-71" style="edgeStyle=orthogonalEdgeStyle;rounded=0;orthogonalLoop=1;jettySize=auto;html=1;shadow=0;entryX=0;entryY=0.5;entryDx=0;entryDy=0;" edge="1" parent="1">
          <mxGeometry relative="1" as="geometry">
            <mxPoint x="400" y="350" as="targetPoint" />
            <mxPoint x="190" y="510" as="sourcePoint" />
            <Array as="points">
              <mxPoint x="180" y="510" />
              <mxPoint x="180" y="350" />
            </Array>
          </mxGeometry>
        </mxCell>
        <mxCell id="eCsi99Z--QrvyG-Xt2cK-42" value="Actor" style="shape=umlActor;verticalLabelPosition=bottom;verticalAlign=top;html=1;outlineConnect=0;" vertex="1" parent="1">
          <mxGeometry x="190" y="460" width="30" height="60" as="geometry" />
        </mxCell>
        <mxCell id="eCsi99Z--QrvyG-Xt2cK-48" style="edgeStyle=orthogonalEdgeStyle;rounded=0;orthogonalLoop=1;jettySize=auto;html=1;entryX=0;entryY=0.5;entryDx=0;entryDy=0;" edge="1" parent="1" source="eCsi99Z--QrvyG-Xt2cK-45" target="eCsi99Z--QrvyG-Xt2cK-47">
          <mxGeometry relative="1" as="geometry" />
        </mxCell>
        <mxCell id="eCsi99Z--QrvyG-Xt2cK-45" value="pandas读取，特征工程，训练，推荐" style="rounded=1;whiteSpace=wrap;html=1;fillColor=#ffe6cc;strokeColor=#d79b00;" vertex="1" parent="1">
          <mxGeometry x="400" y="180" width="140" height="60" as="geometry" />
        </mxCell>
        <mxCell id="eCsi99Z--QrvyG-Xt2cK-74" style="edgeStyle=orthogonalEdgeStyle;rounded=0;orthogonalLoop=1;jettySize=auto;html=1;shadow=0;entryX=1;entryY=0.5;entryDx=0;entryDy=0;" edge="1" parent="1" source="eCsi99Z--QrvyG-Xt2cK-47" target="eCsi99Z--QrvyG-Xt2cK-49">
          <mxGeometry relative="1" as="geometry">
            <mxPoint x="710" y="500" as="targetPoint" />
            <Array as="points">
              <mxPoint x="710" y="490" />
            </Array>
          </mxGeometry>
        </mxCell>
        <mxCell id="eCsi99Z--QrvyG-Xt2cK-47" value="推荐结果保存在mysql" style="rounded=1;whiteSpace=wrap;html=1;fillColor=#dae8fc;strokeColor=#6c8ebf;" vertex="1" parent="1">
          <mxGeometry x="650" y="180" width="120" height="60" as="geometry" />
        </mxCell>
        <mxCell id="eCsi99Z--QrvyG-Xt2cK-51" style="edgeStyle=orthogonalEdgeStyle;rounded=0;orthogonalLoop=1;jettySize=auto;html=1;" edge="1" parent="1" source="eCsi99Z--QrvyG-Xt2cK-49">
          <mxGeometry relative="1" as="geometry">
            <mxPoint x="240" y="510" as="targetPoint" />
          </mxGeometry>
        </mxCell>
        <mxCell id="eCsi99Z--QrvyG-Xt2cK-49" value="推荐中心&lt;br&gt;" style="rounded=1;whiteSpace=wrap;html=1;fillColor=#ffe6cc;strokeColor=#d79b00;" vertex="1" parent="1">
          <mxGeometry x="410" y="460" width="120" height="60" as="geometry" />
        </mxCell>
        <mxCell id="eCsi99Z--QrvyG-Xt2cK-52" value="发送请求&lt;br&gt;" style="text;html=1;strokeColor=none;fillColor=none;align=center;verticalAlign=middle;whiteSpace=wrap;rounded=0;" vertex="1" parent="1">
          <mxGeometry x="260" y="450" width="40" height="20" as="geometry" />
        </mxCell>
        <mxCell id="eCsi99Z--QrvyG-Xt2cK-55" value="发送请求&lt;br&gt;" style="text;html=1;strokeColor=none;fillColor=none;align=center;verticalAlign=middle;whiteSpace=wrap;rounded=0;" vertex="1" parent="1">
          <mxGeometry x="260" y="530" width="40" height="20" as="geometry" />
        </mxCell>
        <mxCell id="eCsi99Z--QrvyG-Xt2cK-73" style="edgeStyle=orthogonalEdgeStyle;rounded=0;orthogonalLoop=1;jettySize=auto;html=1;shadow=0;" edge="1" parent="1" source="eCsi99Z--QrvyG-Xt2cK-56" target="eCsi99Z--QrvyG-Xt2cK-49">
          <mxGeometry relative="1" as="geometry" />
        </mxCell>
        <mxCell id="eCsi99Z--QrvyG-Xt2cK-56" value="在用户做出评价后，为用户推荐相似电影，热门电影" style="rounded=1;whiteSpace=wrap;html=1;fillColor=#ffe6cc;strokeColor=#d79b00;" vertex="1" parent="1">
          <mxGeometry x="400" y="310" width="140" height="60" as="geometry" />
        </mxCell>
        <mxCell id="eCsi99Z--QrvyG-Xt2cK-69" value="读取数据&lt;br&gt;" style="text;html=1;strokeColor=none;fillColor=none;align=center;verticalAlign=middle;whiteSpace=wrap;rounded=0;" vertex="1" parent="1">
          <mxGeometry x="710" y="370" width="40" height="20" as="geometry" />
        </mxCell>
      </root>
    </mxGraphModel>
  </diagram>
</mxfile>
